<?xml version="1.0" encoding="UTF-8"?>
<svg id="Layer_1" data-name="Layer 1" xmlns="http://www.w3.org/2000/svg" viewBox="0 0 960 960">
  <defs>
    <style>
      .cls-1 {
        fill: #4ea4dd;
      }

      .cls-1, .cls-2 {
        fill-rule: evenodd;
        stroke-width: 0px;
      }

      .cls-2 {
        fill: #73d8f1;
      }
    </style>
  </defs>
  <path class="cls-2" d="M284.9,356.97c-13.92,0-25.12,11.2-25.12,25.12s11.2,25.12,25.12,25.12,25.12-11.2,25.12-25.12-11.2-25.12-25.12-25.12ZM73.12,429.49c-30.53,0-55.1,24.58-55.1,55.1v95.13c0,12.61,10.15,22.76,22.76,22.76s22.76-10.15,22.76-22.76v-86.5c0-9.91,7.98-17.9,17.9-17.9s17.9,7.98,17.9,17.9v86.5c0,12.61,10.15,22.76,22.76,22.76s22.76-10.15,22.76-22.76v-86.5c0-9.91,7.98-17.9,17.9-17.9s17.89,7.98,17.9,17.9v46.47c.02,35.14,28.3,63.42,63.44,63.42s63.42-28.29,63.42-63.42v-79.28c0-12.61-10.15-22.76-22.76-22.76s-22.76,10.15-22.76,22.76v78.34c0,9.91-7.98,17.9-17.9,17.9s-17.89-7.98-17.9-17.9v-54.16c-.02-30.53-24.59-55.1-55.12-55.1-17.26,0-32.82,7.78-42.9,20.21-1.27,1.56-3.1,3.02-6.07,3.02s-4.81-1.46-6.07-3.02c-10.08-12.43-25.64-20.21-42.9-20.21h0Z"/>
  <path class="cls-1" d="M366.37,370.78c-12.61,0-22.76,10.15-22.76,22.76v186.19c0,12.61,10.15,22.76,22.76,22.76s22.76-10.15,22.76-22.76v-61.07c0-5.74,4.62-10.36,10.36-10.36h24.49c5.74,0,10.36,4.62,10.36,10.36v61.07c0,12.61,10.15,22.76,22.76,22.76s22.76-10.15,22.76-22.76v-186.19c0-12.61-10.15-22.76-22.76-22.76s-22.76,10.15-22.76,22.76v56.36c0,5.74-4.62,10.36-10.36,10.36h-24.49c-5.74,0-10.36-4.62-10.36-10.36v-56.36c0-12.61-10.15-22.76-22.76-22.76Z"/>
  <path class="cls-1" d="M665.74,370.78c-7.22,0-14.28,9.11-7.82,18.07l44.87,81.14v109.74c0,12.61,10.16,22.76,22.77,22.76s22.77-10.15,22.77-22.76v-109.74l44.87-81.14c6.46-8.97-.6-18.07-7.82-18.07h-23.31c-3.14,0-6.9,2.08-8.41,4.83l-24.99,45.72c-.63,1.16-1.74,1.57-2.95,1.57s-2.41-.41-3.05-1.57l-25.22-45.72c-1.52-2.75-5.26-4.83-8.4-4.83h-23.31Z"/>
  <path class="cls-1" d="M520.53,416.94c-1.26,0-2.04,5.97-2.04,14.13s1.57,16.01,3.14,16.01,1.57-.94,9.11-7.54,8.79-6.59,8.79-8.48-2.83-3.45-9.42-8.16c-6.59-4.71-8.32-5.97-9.58-5.97h0ZM652.72,416.94c-1.26,0-2.98,1.26-9.58,5.97-6.59,4.71-9.42,6.28-9.42,8.16s1.26,1.88,8.79,8.48c7.54,6.59,7.54,7.54,9.11,7.54s3.14-7.85,3.14-16.01-.78-14.13-2.04-14.13h0ZM586.63,430.12c-41.61,0-75.35,38.67-75.35,86.34s33.74,86.34,75.35,86.34,75.35-38.66,75.35-86.34-33.74-86.34-75.35-86.34h0ZM586.63,473.14c20.79,0,37.68,19.45,37.68,43.33s-16.87,43.33-37.68,43.33-37.68-19.4-37.68-43.33c0-23.88,16.89-43.33,37.68-43.33Z"/>
  <path class="cls-1" d="M920.69,421.96c-12.85,0-19.15,5.65-22.92,8.48-3.77,2.83-6.91,5.65-10.36,5.65-8.79,0-15.07-5.97-32.65-5.97-41.62,0-75.35,38.66-75.35,86.34s33.74,86.34,75.35,86.34,75.35-38.66,75.35-86.34c0-17.39-4.58-34.38-13.15-48.74-1.44-3.7-1.92-7.46-1.91-14.84,0-10.2,4.92-17.72,10.36-21.51,5.44-3.79,10.05-4.71,15.7-5.34-5.97-2.83-12.87-4.08-20.41-4.08h0ZM854.76,473.14c20.79-.04,37.68,19.4,37.68,43.33s-16.87,43.33-37.68,43.33-37.68-19.4-37.68-43.33c0-23.88,16.89-43.29,37.68-43.33Z"/>
</svg>