<svg xmlns="http://www.w3.org/2000/svg"  viewBox="0 0 64 64" width="64px" height="64px"><linearGradient id="ttgIihOb6o2W6jtq9DEyaa" x1="-312.28" x2="-312.28" y1="417.02" y2="463.02" gradientTransform="translate(344.28 -408.02)" gradientUnits="userSpaceOnUse"><stop offset="0" stop-color="#1a6dff"/><stop offset="1" stop-color="#c822ff"/></linearGradient><path fill="url(#ttgIihOb6o2W6jtq9DEyaa)" d="M50,9H14c-2.757,0-5,2.243-5,5v36c0,2.757,2.243,5,5,5h36c2.757,0,5-2.243,5-5V14 C55,11.243,52.757,9,50,9z M53,50c0,1.654-1.346,3-3,3H14c-1.654,0-3-1.346-3-3V14c0-1.654,1.346-3,3-3h36c1.654,0,3,1.346,3,3V50z"/><linearGradient id="ttgIihOb6o2W6jtq9DEyab" x1="32" x2="32" y1="8.529" y2="61.752" gradientUnits="userSpaceOnUse"><stop offset="0" stop-color="#6dc7ff"/><stop offset=".699" stop-color="#e6abff"/></linearGradient><path fill="url(#ttgIihOb6o2W6jtq9DEyab)" d="M40.849,24H35.5 c-0.276,0-0.5,0.224-0.5,0.5v19.293c0,0.133-0.053,0.26-0.146,0.354l-2.5,2.5c-0.195,0.195-0.512,0.195-0.707,0l-2.5-2.5 C29.053,44.053,29,43.926,29,43.793V24.5c0-0.276-0.224-0.5-0.5-0.5h-5.349c-0.437,0-0.664-0.522-0.365-0.841l3.736-4 C26.616,19.057,26.749,19,26.887,19h10.226c0.139,0,0.271,0.057,0.365,0.159l3.736,4C41.513,23.478,41.286,24,40.849,24z"/><linearGradient id="ttgIihOb6o2W6jtq9DEyac" x1="25.351" x2="25.351" y1="8.873" y2="60.826" gradientUnits="userSpaceOnUse"><stop offset="0" stop-color="#6dc7ff"/><stop offset=".699" stop-color="#e6abff"/></linearGradient><path fill="url(#ttgIihOb6o2W6jtq9DEyac)" d="M28.556,38.574l-2.482,2.482 c-0.195,0.195-0.512,0.195-0.708,0l-3.22-3.229C22.052,37.733,22,37.606,22,37.473V26.5c0-0.276,0.224-0.5,0.5-0.5H26 c0.276,0,0.5,0.224,0.5,0.5v9.112c0,0.133,0.053,0.26,0.147,0.354l1.908,1.9C28.751,38.062,28.751,38.379,28.556,38.574z"/><linearGradient id="ttgIihOb6o2W6jtq9DEyad" x1="38.559" x2="38.559" y1="8.873" y2="60.826" gradientUnits="userSpaceOnUse"><stop offset="0" stop-color="#6dc7ff"/><stop offset=".699" stop-color="#e6abff"/></linearGradient><path fill="url(#ttgIihOb6o2W6jtq9DEyad)" d="M35.354,38.574l2.482,2.482 c0.195,0.195,0.512,0.195,0.708,0l3.22-3.229c0.093-0.094,0.146-0.221,0.146-0.353V26.5c0-0.276-0.224-0.5-0.5-0.5h-3.5 c-0.276,0-0.5,0.224-0.5,0.5v9.112c0,0.133-0.053,0.26-0.147,0.354l-1.908,1.9C35.159,38.062,35.159,38.379,35.354,38.574z"/><linearGradient id="ttgIihOb6o2W6jtq9DEyae" x1="32" x2="32" y1="15" y2="51.278" gradientUnits="userSpaceOnUse"><stop offset="0" stop-color="#1a6dff"/><stop offset="1" stop-color="#c822ff"/></linearGradient><path fill="none" stroke="url(#ttgIihOb6o2W6jtq9DEyae)" stroke-miterlimit="10" stroke-width="2" d="M44.357,39.594l-11,10.154c-0.766,0.707-1.947,0.707-2.713,0l-11-10.154C19.233,39.215,19,38.683,19,38.124V22.828 c0-0.53,0.211-1.039,0.586-1.414l4.828-4.828C24.789,16.211,25.298,16,25.828,16h12.343c0.53,0,1.039,0.211,1.414,0.586 l4.828,4.828C44.789,21.789,45,22.298,45,22.828v15.296C45,38.683,44.767,39.215,44.357,39.594z"/></svg>