<svg xmlns="http://www.w3.org/2000/svg"  viewBox="0 0 48 48" width="48px" height="48px" baseProfile="basic"><path fill="#616161" d="M25.199,21.338h-2.451v1.792h2.451V21.338z M26.385,29.337l-1.186-1.186v-3.36h-2.451v1.792h0.87	v2.767h-6.326v-2.767h1.186v-5.245h-1.186v-2.767h10.595l1.766,1.792v2.24l-1.581,1.16l1.581,1.186v2.016h1.002v2.372L26.385,29.337 M29.68,9.767v5.627l-2.372,2.372H20.85l-2.372-2.372V9.767h-1.186V7h6.51v2.767h-1.028v5.245h3.624V9.767h-0.883V7h5.166v2.767	h-1.015 M40.605,9.767h-3.624v1.845h3.637V9.767H40.605z M43.174,13.497h-6.194v1.489h1.147v2.767h-6.616v-2.767h1.186V9.767h-1.186	V7h11.465l1.911,1.845v2.952l-1.713,1.687 M42.463,29.337h-8.144l-2.807-2.767v-5.245l2.807-2.767h6.418l0.791,1.015l0.791-1.002	h2.57v4.533h-3.36v-1.779h-5.64v5.271h5.64v-1.805h3.36v2.174L42.463,29.337 M29.495,40.96H17.292v-2.767h1.186v-5.232h-1.186	v-2.767h6.642v2.767h-1.186v5.245h4.586v-3.479h3.347v4.955L29.495,40.96 M43.702,40.96H31.498v-2.767h1.16v-5.232h-1.16v-2.767	h6.616v2.767h-1.186v5.245h4.612v-3.479h3.347v4.955L43.702,40.96 M14.393,17.767H6.934l-0.883-0.949L5.26,17.767H3.112v-3.295	h3.005v0.922h5.627v-1.542H5.05l-1.937-1.805V9.412L5.353,7h6.695l0.883,0.949L13.721,7h2.148v3.295h-3.031V9.372h-5.06v1.555h6.536	l2.188,2.069V15.5L14.393,17.767 M15.289,29.337H3.112V26.57h1.186v-5.205H3.112v-2.767h12.177l1.186,1.318v3.69l-3.347,0.026	v-2.267h-4.56v1.581h1.977v2.003H8.568v1.634h4.56v-2.24h3.347v3.69l-1.186,1.318 M15.289,40.947H3.112V38.18h1.186v-5.219H3.112	v-2.767h12.177l1.186,1.318v3.69h-3.347v-2.24h-4.56v1.621h1.977v1.977H8.568v1.674h4.56v-2.24h3.347v3.69L15.289,41"/></svg>